# xmcd
#
# Track frame offsets:
#	150
#	15125
#	25890
#	37712
#	50055
#	65350
#	76492
#	90407
#	104140
#	117342
#	126600
#	141000
#
# Disc length: 2040 seconds
#
# Revision: 1
# Processed by: cddbd v1.5.1PL0 Copyright (c) Steve Scherf et al.
# Submitted via: audiograbber 1.83.01
#
DISCID=9a07f60c
DTITLE=Stephen Ackles - If this ain't music...!
DYEAR=1991
DGENRE=Country
TTITLE0=If you don't come back
TTITLE1=Down by the railroad track
TTITLE2=Jealousy
TTITLE3=Worst case of love
TTITLE4=What more can I do
TTITLE5=If that ain't music
TTITLE6=Remember
TTITLE7=Ballad of a homeless
TTITLE8=Whisper my name
TTITLE9=Break up
TTITLE10=Victim of a honky tonk life
TTITLE11=My prayer
EXTD=
EXTT0=
EXTT1=
EXTT2=
EXTT3=
EXTT4=
EXTT5=
EXTT6=
EXTT7=
EXTT8=
EXTT9=
EXTT10=
EXTT11=
PLAYORDER=
